# xmcd CD database file
#
# Track frame offsets:
#	150
#	16712
#	33037
#	57700
#	79150
#	108675
#	126425
#	140100
#	162750
#
# Disc length: 2551 seconds
#
# Revision: 0
# Processed by: cddbd v1.5PL3 Copyright (c) Steve Scherf et al.
# Submitted via: CDex 1.50beta10
#
DISCID=7809f509
DTITLE=Jay Gordon - Jaywalkin
DYEAR=1994
DGENRE=Blues
TTITLE0=Whiskey Women and Fast Cars
TTITLE1=You Should Have Married a Priest
TTITLE2=Blacktop Alley
TTITLE3=Shade Tree Mechanic
TTITLE4=Strings Talkin
TTITLE5=Rub Some Good Luck on Me
TTITLE6=Farm Dog
TTITLE7=Pure Grain Alcohol
TTITLE8=Jaywalkin
EXTD=YEAR: 1994
EXTT0=
EXTT1=
EXTT2=
EXTT3=
EXTT4=
EXTT5=
EXTT6=
EXTT7=
EXTT8=
PLAYORDER=
